<svg xmlns="http://www.w3.org/2000/svg" xmlns:xlink="http://www.w3.org/1999/xlink" width="500" zoomAndPan="magnify" viewBox="0 0 375 374.999991" height="500" preserveAspectRatio="xMidYMid meet" version="1.0"><defs><clipPath id="f8d9f261ed"><path d="M 146 67 L 358.789062 67 L 358.789062 374.375 L 146 374.375 Z M 146 67 " clip-rule="nonzero"/></clipPath><clipPath id="e6e76383c9"><path d="M 16.039062 1 L 228 1 L 228 308 L 16.039062 308 Z M 16.039062 1 " clip-rule="nonzero"/></clipPath></defs><g clip-path="url(#f8d9f261ed)"><path fill="#000000" d="M 358.605469 372.917969 C 348.75 357.195312 338.882812 341.46875 329.007812 325.746094 L 314.191406 302.210938 L 299.316406 278.671875 L 269.523438 231.625 L 241.570312 187.558594 L 277.558594 134.648438 L 287.035156 120.738281 C 290.207031 116.109375 293.351562 111.464844 296.542969 106.847656 L 315.683594 79.160156 L 323.425781 67.964844 L 221.347656 67.28125 L 219.195312 71.128906 C 216.050781 76.765625 212.976562 82.4375 209.871094 88.097656 L 207.550781 92.347656 L 205.261719 96.621094 L 200.65625 105.140625 L 191.558594 122.242188 L 186.921875 131.0625 C 185.152344 128.371094 183.382812 125.6875 181.613281 123.007812 L 176.1875 114.882812 L 170.707031 106.78125 L 165.226562 98.699219 L 159.667969 90.65625 C 155.945312 85.292969 152.167969 79.96875 148.335938 74.679688 C 148.226562 74.492188 148.066406 74.371094 147.851562 74.3125 C 147.640625 74.257812 147.441406 74.285156 147.25 74.398438 C 147.0625 74.507812 146.941406 74.667969 146.886719 74.882812 C 146.828125 75.09375 146.855469 75.292969 146.96875 75.484375 C 149.75 81.382812 152.609375 87.246094 155.542969 93.078125 L 159.9375 101.816406 L 164.390625 110.527344 L 168.875 119.207031 L 173.40625 127.863281 C 176.453125 133.621094 179.496094 139.382812 182.585938 145.113281 L 187.042969 153.386719 L 192.355469 145.046875 C 195.820312 139.59375 199.203125 134.113281 202.628906 128.640625 L 212.8125 112.179688 L 217.859375 103.914062 L 220.382812 99.796875 L 222.882812 95.683594 C 225.410156 91.492188 227.945312 87.308594 230.453125 83.109375 C 232.453125 83.109375 293.480469 82.878906 295.90625 82.828125 L 285.417969 99.503906 C 282.4375 104.257812 279.402344 108.96875 276.394531 113.707031 L 267.335938 127.890625 L 231.070312 184.609375 L 229.175781 187.558594 L 231.070312 190.300781 L 262.515625 236.257812 L 294.027344 282.164062 L 309.785156 305.105469 L 325.597656 328.019531 C 336.128906 343.320312 346.699219 358.585938 357.304688 373.8125 C 357.421875 373.988281 357.589844 374.097656 357.796875 374.136719 C 358.007812 374.179688 358.203125 374.140625 358.378906 374.023438 C 358.558594 373.902344 358.667969 373.742188 358.710938 373.53125 C 358.757812 373.320312 358.71875 373.128906 358.605469 372.945312 Z M 358.605469 372.917969 " fill-opacity="1" fill-rule="nonzero"/></g><g clip-path="url(#e6e76383c9)"><path fill="#000000" d="M 219.351562 281.839844 L 214.960938 273.09375 L 210.515625 264.390625 L 206.023438 255.707031 L 201.492188 247.050781 C 198.445312 241.289062 195.410156 235.527344 192.3125 229.800781 L 187.851562 221.523438 L 182.542969 229.871094 C 179.078125 235.316406 175.691406 240.804688 172.265625 246.277344 L 162.082031 262.738281 L 157.039062 271.003906 L 154.511719 275.117188 L 152.015625 279.234375 C 149.492188 283.425781 146.976562 287.617188 144.480469 291.804688 C 142.480469 291.804688 81.453125 292.046875 79.019531 292.09375 L 89.480469 275.421875 C 92.46875 270.667969 95.503906 265.949219 98.511719 261.214844 L 107.566406 247.023438 L 143.835938 190.308594 L 145.71875 187.359375 L 143.835938 184.617188 L 112.390625 138.757812 L 80.875 92.945312 L 65.121094 70.050781 L 49.292969 47.183594 C 38.769531 31.929688 28.203125 16.703125 17.59375 1.503906 C 17.476562 1.332031 17.316406 1.226562 17.109375 1.183594 C 16.90625 1.140625 16.714844 1.171875 16.539062 1.285156 C 16.359375 1.398438 16.246094 1.5625 16.195312 1.773438 C 16.148438 1.980469 16.179688 2.175781 16.292969 2.359375 C 26.160156 18.0625 36.023438 33.757812 45.890625 49.441406 L 60.707031 72.960938 L 75.582031 96.445312 L 105.367188 143.398438 L 133.328125 187.367188 L 97.359375 240.277344 L 87.886719 254.183594 C 84.714844 258.808594 81.574219 263.457031 78.375 268.074219 L 59.234375 295.765625 L 51.5 306.957031 L 153.578125 307.644531 L 155.734375 303.761719 C 158.878906 298.125 161.964844 292.449219 165.058594 286.792969 L 167.382812 282.539062 L 169.683594 278.28125 L 174.289062 269.761719 L 183.339844 252.683594 L 187.976562 243.871094 L 193.285156 251.90625 L 198.710938 260.035156 L 204.191406 268.144531 L 209.671875 276.222656 L 215.230469 284.269531 C 218.945312 289.628906 222.722656 294.949219 226.5625 300.234375 C 226.679688 300.398438 226.835938 300.5 227.035156 300.539062 C 227.230469 300.578125 227.417969 300.546875 227.589844 300.445312 C 227.761719 300.339844 227.875 300.195312 227.9375 300 C 227.996094 299.808594 227.980469 299.621094 227.898438 299.441406 C 225.136719 293.554688 222.289062 287.6875 219.351562 281.839844 Z M 219.351562 281.839844 " fill-opacity="1" fill-rule="nonzero"/></g></svg>