<svg xmlns="http://www.w3.org/2000/svg" xmlns:xlink="http://www.w3.org/1999/xlink" width="500" zoomAndPan="magnify" viewBox="0 0 375 374.999991" height="500" preserveAspectRatio="xMidYMid meet" version="1.0"><defs><g/><clipPath id="e6317869c6"><path d="M 180 33 L 284.761719 33 L 284.761719 184 L 180 184 Z M 180 33 " clip-rule="nonzero"/></clipPath><clipPath id="5190e42aa5"><path d="M 115.683594 0.710938 L 221 0.710938 L 221 152 L 115.683594 152 Z M 115.683594 0.710938 " clip-rule="nonzero"/></clipPath><clipPath id="6692d1c7dc"><rect x="0" width="374" y="0" height="186"/></clipPath></defs><g transform="matrix(1, 0, 0, 1, 0, 95)"><g clip-path="url(#6692d1c7dc)"><g clip-path="url(#e6317869c6)"><path fill="#000000" d="M 284.671875 183.34375 C 279.808594 175.625 274.941406 167.90625 270.070312 160.1875 L 262.761719 148.632812 L 255.425781 137.078125 L 240.726562 113.984375 L 226.9375 92.355469 L 244.691406 66.382812 L 249.363281 59.554688 C 250.929688 57.28125 252.480469 55 254.054688 52.734375 L 263.5 39.144531 L 267.316406 33.648438 L 216.960938 33.3125 L 215.902344 35.203125 C 214.347656 37.96875 212.832031 40.753906 211.300781 43.53125 L 210.15625 45.617188 L 209.027344 47.714844 L 206.753906 51.898438 L 202.269531 60.292969 L 199.980469 64.621094 C 199.109375 63.300781 198.234375 61.984375 197.359375 60.667969 L 194.683594 56.679688 L 191.980469 52.703125 L 189.277344 48.734375 L 186.535156 44.785156 C 184.699219 42.152344 182.835938 39.539062 180.945312 36.945312 C 180.890625 36.851562 180.8125 36.792969 180.707031 36.765625 C 180.601562 36.738281 180.503906 36.75 180.410156 36.804688 C 180.316406 36.859375 180.257812 36.941406 180.230469 37.042969 C 180.203125 37.148438 180.214844 37.246094 180.269531 37.339844 C 181.640625 40.234375 183.054688 43.113281 184.5 45.976562 L 186.667969 50.265625 L 188.863281 54.539062 L 191.078125 58.804688 L 193.3125 63.050781 C 194.816406 65.875 196.316406 68.707031 197.839844 71.519531 L 200.039062 75.582031 L 202.660156 71.484375 C 204.371094 68.808594 206.039062 66.121094 207.730469 63.433594 L 212.75 55.351562 L 215.242188 51.296875 L 216.484375 49.273438 L 217.71875 47.253906 C 218.964844 45.199219 220.214844 43.144531 221.453125 41.082031 C 222.441406 41.082031 252.546875 40.96875 253.742188 40.945312 L 248.566406 49.128906 C 247.097656 51.464844 245.601562 53.777344 244.117188 56.101562 L 239.648438 63.066406 L 221.757812 90.90625 L 220.824219 92.355469 L 221.757812 93.699219 L 237.269531 116.257812 L 252.816406 138.792969 L 260.589844 150.054688 L 268.386719 161.304688 C 273.582031 168.816406 278.796875 176.308594 284.027344 183.78125 C 284.089844 183.867188 284.167969 183.921875 284.273438 183.941406 C 284.375 183.960938 284.472656 183.941406 284.558594 183.886719 C 284.648438 183.828125 284.703125 183.746094 284.722656 183.644531 C 284.746094 183.542969 284.726562 183.445312 284.671875 183.355469 Z M 284.671875 183.34375 " fill-opacity="1" fill-rule="nonzero"/></g><g clip-path="url(#5190e42aa5)"><path fill="#000000" d="M 215.980469 138.636719 L 213.8125 134.34375 L 211.617188 130.070312 L 209.402344 125.808594 L 207.167969 121.558594 C 205.664062 118.730469 204.167969 115.902344 202.640625 113.089844 L 200.4375 109.027344 L 197.820312 113.125 C 196.109375 115.796875 194.441406 118.492188 192.75 121.179688 L 187.726562 129.257812 L 185.238281 133.316406 L 183.992188 135.335938 L 182.761719 137.355469 C 181.515625 139.414062 180.277344 141.472656 179.042969 143.527344 C 178.058594 143.527344 147.953125 143.644531 146.753906 143.667969 L 151.914062 135.484375 C 153.386719 133.152344 154.882812 130.835938 156.367188 128.511719 L 160.835938 121.542969 L 178.726562 93.703125 L 179.65625 92.257812 L 178.726562 90.910156 L 163.214844 68.398438 L 147.667969 45.910156 L 139.894531 34.671875 L 132.089844 23.449219 C 126.898438 15.960938 121.683594 8.484375 116.449219 1.023438 C 116.394531 0.941406 116.3125 0.886719 116.210938 0.867188 C 116.113281 0.847656 116.019531 0.863281 115.929688 0.917969 C 115.839844 0.972656 115.785156 1.054688 115.761719 1.15625 C 115.738281 1.257812 115.753906 1.355469 115.808594 1.445312 C 120.675781 9.152344 125.542969 16.855469 130.410156 24.554688 L 137.71875 36.101562 L 145.054688 47.628906 L 159.75 70.679688 L 173.542969 92.257812 L 155.800781 118.230469 L 151.125 125.058594 C 149.558594 127.328125 148.011719 129.613281 146.433594 131.878906 L 136.992188 145.46875 L 133.175781 150.964844 L 183.53125 151.300781 L 184.597656 149.394531 C 186.148438 146.628906 187.667969 143.84375 189.195312 141.066406 L 190.339844 138.976562 L 191.476562 136.886719 L 193.746094 132.707031 L 198.210938 124.324219 L 200.5 119.996094 L 203.121094 123.941406 L 205.796875 127.933594 L 208.5 131.910156 L 211.203125 135.878906 L 213.945312 139.828125 C 215.777344 142.457031 217.640625 145.070312 219.535156 147.664062 C 219.59375 147.746094 219.671875 147.792969 219.769531 147.8125 C 219.863281 147.832031 219.957031 147.816406 220.039062 147.765625 C 220.125 147.714844 220.183594 147.644531 220.210938 147.550781 C 220.242188 147.457031 220.234375 147.363281 220.191406 147.273438 C 218.832031 144.386719 217.425781 141.507812 215.980469 138.636719 Z M 215.980469 138.636719 " fill-opacity="1" fill-rule="nonzero"/></g><g fill="#000000" fill-opacity="1"><g transform="translate(0.0000045, 102.409538)"><g><path d="M 56.328125 -2.171875 C 56.484375 -1.703125 56.539062 -1.3125 56.5 -1 L 51.8125 -1 C 51.8125 -0.957031 51.8125 -0.914062 51.8125 -0.875 C 51.8125 -0.832031 51.8125 -0.8125 51.8125 -0.8125 C 51.769531 -0.65625 51.660156 -0.46875 51.484375 -0.25 C 51.316406 -0.0390625 51 0.0625 50.53125 0.0625 L 44.265625 0.0625 C 43.597656 0.0625 43.070312 -0.289062 42.6875 -1 L 47.359375 -1 C 47.359375 -1 47.320312 -1.078125 47.25 -1.234375 L 46.890625 -2.171875 L 42.328125 -2.171875 L 40.859375 -5.859375 L 44.265625 -5.859375 L 41.09375 -13.640625 L 36.46875 -13.640625 L 35.015625 -17.328125 L 38.109375 -17.328125 L 34.421875 -26.640625 L 37.125 -26.640625 L 36.65625 -27.875 L 32.3125 -27.875 L 29.921875 -33.78125 L 32.78125 -33.78125 L 31.328125 -37.46875 L 30.96875 -37.46875 C 30.96875 -37.46875 30.945312 -37.445312 30.90625 -37.40625 L 29.5 -33.78125 L 26.640625 -33.78125 L 24.296875 -27.875 L 28.625 -27.875 L 28.109375 -26.640625 L 25.40625 -26.640625 L 23.484375 -21.71875 L 29.09375 -21.71875 L 29.09375 -21.078125 L 23.25 -21.078125 L 22.1875 -18.4375 L 29.390625 -18.4375 C 30.171875 -18.4375 30.738281 -18.066406 31.09375 -17.328125 L 27.984375 -17.328125 C 27.984375 -17.328125 27.984375 -17.316406 27.984375 -17.296875 C 27.984375 -17.273438 27.984375 -17.265625 27.984375 -17.265625 L 29.453125 -13.640625 L 34.078125 -13.640625 L 34.71875 -12.0625 C 34.914062 -11.394531 34.835938 -10.828125 34.484375 -10.359375 C 34.171875 -9.816406 33.664062 -9.546875 32.96875 -9.546875 L 20.140625 -9.546875 L 18.671875 -5.859375 L 15.28125 -5.859375 L 13.8125 -2.171875 L 18.390625 -2.171875 L 17.96875 -1.171875 C 17.96875 -1.128906 17.929688 -1.070312 17.859375 -1 L 13.171875 -1 C 12.859375 -0.289062 12.351562 0.0625 11.65625 0.0625 L 5.203125 0.0625 C 4.742188 0.0625 4.425781 -0.0390625 4.25 -0.25 C 4.070312 -0.46875 3.960938 -0.65625 3.921875 -0.8125 C 3.921875 -0.894531 3.898438 -0.957031 3.859375 -1 L 8.546875 -1 C 8.503906 -1.3125 8.5625 -1.703125 8.71875 -2.171875 L 4.15625 -2.171875 C 4.15625 -2.203125 4.164062 -2.21875 4.1875 -2.21875 C 4.207031 -2.21875 4.21875 -2.21875 4.21875 -2.21875 L 5.625 -5.859375 L 9.015625 -5.859375 L 12.171875 -13.640625 L 7.546875 -13.640625 L 9.015625 -17.328125 L 12.125 -17.328125 L 15.859375 -26.640625 L 18.625 -26.640625 L 19.09375 -27.875 L 14.75 -27.875 L 17.15625 -33.78125 L 20.015625 -33.78125 L 21.484375 -37.46875 L 17.15625 -37.46875 L 19.328125 -42.796875 C 19.328125 -42.835938 19.332031 -42.875 19.34375 -42.90625 C 19.363281 -42.945312 19.375 -42.988281 19.375 -43.03125 L 16.921875 -43.03125 C 16.992188 -43.226562 17.078125 -43.429688 17.171875 -43.640625 C 17.273438 -43.859375 17.367188 -44.066406 17.453125 -44.265625 L 24.765625 -44.265625 C 25.078125 -44.921875 25.390625 -45.484375 25.703125 -45.953125 C 26.015625 -46.421875 26.347656 -46.796875 26.703125 -47.078125 C 26.816406 -47.148438 26.941406 -47.242188 27.078125 -47.359375 C 27.210938 -47.484375 27.359375 -47.582031 27.515625 -47.65625 C 27.597656 -47.695312 27.675781 -47.734375 27.75 -47.765625 C 27.832031 -47.804688 27.890625 -47.847656 27.921875 -47.890625 L 26.234375 -47.890625 C 27.328125 -48.554688 28.535156 -48.890625 29.859375 -48.890625 C 31.179688 -48.890625 32.390625 -48.554688 33.484375 -47.890625 L 35.25 -47.890625 C 36.726562 -47.035156 37.757812 -45.828125 38.34375 -44.265625 L 31.03125 -44.265625 C 31.070312 -44.140625 31.109375 -44.03125 31.140625 -43.9375 C 31.179688 -43.84375 31.222656 -43.753906 31.265625 -43.671875 C 31.304688 -43.554688 31.40625 -43.34375 31.5625 -43.03125 L 34.078125 -43.03125 C 34.078125 -42.988281 34.082031 -42.945312 34.09375 -42.90625 C 34.113281 -42.875 34.125 -42.835938 34.125 -42.796875 L 36.296875 -37.46875 L 40.625 -37.46875 L 42.15625 -33.78125 L 39.28125 -33.78125 L 41.6875 -27.875 L 46.015625 -27.875 L 46.484375 -26.640625 L 43.796875 -26.640625 L 47.546875 -17.328125 L 44.4375 -17.328125 L 45.90625 -13.640625 L 50.53125 -13.640625 L 53.6875 -5.859375 L 50.34375 -5.859375 L 51.8125 -2.21875 C 51.8125 -2.21875 51.8125 -2.203125 51.8125 -2.171875 Z M 26.75 -7.375 L 26.75 -6.796875 L 36.59375 -6.796875 L 36.59375 -7.375 Z M 16.5625 -4.15625 L 16.5625 -3.515625 L 23.015625 -3.515625 L 23.015625 -4.15625 Z M 16.5625 -4.15625 "/></g></g></g><g fill="#000000" fill-opacity="1"><g transform="translate(60.423076, 102.409538)"><g><path d="M 15.109375 -39.171875 C 14.328125 -38.929688 13.738281 -38.5 13.34375 -37.875 C 13.3125 -37.84375 13.273438 -37.785156 13.234375 -37.703125 C 13.191406 -37.628906 13.132812 -37.550781 13.0625 -37.46875 L 20.546875 -37.46875 C 20.390625 -37.195312 20.253906 -36.875 20.140625 -36.5 C 20.023438 -36.132812 19.925781 -35.734375 19.84375 -35.296875 C 19.800781 -35.066406 19.757812 -34.832031 19.71875 -34.59375 C 19.6875 -34.363281 19.648438 -34.09375 19.609375 -33.78125 L 12.828125 -33.78125 C 12.785156 -33.394531 12.753906 -32.96875 12.734375 -32.5 C 12.710938 -32.03125 12.703125 -31.519531 12.703125 -30.96875 L 12.703125 -27.875 L 28.390625 -27.875 L 28.390625 -26.640625 L 13.875 -26.640625 L 13.875 -17.328125 L 17.03125 -17.328125 C 17.03125 -15.921875 17.09375 -14.691406 17.21875 -13.640625 L 18.90625 -13.640625 C 18.945312 -13.523438 18.96875 -13.40625 18.96875 -13.28125 C 18.96875 -13.164062 18.988281 -13.050781 19.03125 -12.9375 C 19.1875 -11.84375 19.515625 -10.984375 20.015625 -10.359375 C 20.410156 -9.734375 21 -9.304688 21.78125 -9.078125 C 22.476562 -8.804688 23.472656 -8.671875 24.765625 -8.671875 L 45.78125 -8.671875 C 46.050781 -8.671875 46.390625 -8.550781 46.796875 -8.3125 C 47.210938 -8.082031 47.421875 -7.515625 47.421875 -6.609375 L 47.421875 -5.859375 L 41.984375 -5.859375 L 41.984375 -2.171875 L 46.78125 -2.171875 L 46.78125 -1.984375 C 46.78125 -1.796875 46.757812 -1.613281 46.71875 -1.4375 C 46.675781 -1.257812 46.640625 -1.113281 46.609375 -1 L 40.75 -1 C 40.59375 -0.53125 40.359375 -0.234375 40.046875 -0.109375 C 39.734375 0.00390625 39.476562 0.0625 39.28125 0.0625 L 17.96875 0.0625 C 15.394531 0.0625 13.210938 -0.269531 11.421875 -0.9375 C 11.378906 -0.9375 11.335938 -0.957031 11.296875 -1 L 17.15625 -1 C 16.726562 -1.15625 16.316406 -1.328125 15.921875 -1.515625 C 15.535156 -1.710938 15.164062 -1.929688 14.8125 -2.171875 L 10.015625 -2.171875 C 9.191406 -2.796875 8.488281 -3.457031 7.90625 -4.15625 C 7.75 -4.425781 7.582031 -4.695312 7.40625 -4.96875 C 7.226562 -5.25 7.0625 -5.546875 6.90625 -5.859375 L 12.296875 -5.859375 C 11.671875 -6.953125 11.179688 -8.296875 10.828125 -9.890625 C 10.671875 -10.472656 10.550781 -11.078125 10.46875 -11.703125 C 10.394531 -12.328125 10.320312 -12.972656 10.25 -13.640625 L 8.546875 -13.640625 C 8.429688 -14.804688 8.375 -16.035156 8.375 -17.328125 L 5.203125 -17.328125 C 5.203125 -17.484375 5.203125 -17.648438 5.203125 -17.828125 C 5.203125 -18.003906 5.203125 -18.171875 5.203125 -18.328125 L 5.203125 -26.640625 L 9.546875 -26.640625 L 9.546875 -27.875 L 3.984375 -27.875 L 3.984375 -29.921875 C 3.984375 -31.285156 4.039062 -32.570312 4.15625 -33.78125 L 11 -33.78125 C 11.082031 -34.445312 11.148438 -35.09375 11.203125 -35.71875 C 11.265625 -36.34375 11.351562 -36.925781 11.46875 -37.46875 L 3.984375 -37.46875 C 4.023438 -37.582031 4.050781 -37.707031 4.0625 -37.84375 C 4.082031 -37.988281 4.113281 -38.117188 4.15625 -38.234375 C 4.550781 -40.023438 5.175781 -41.625 6.03125 -43.03125 L 16.15625 -43.03125 C 16.351562 -43.382812 16.566406 -43.695312 16.796875 -43.96875 C 16.921875 -44.082031 17 -44.179688 17.03125 -44.265625 L 14.8125 -44.265625 C 15.351562 -44.921875 15.972656 -45.503906 16.671875 -46.015625 C 17.378906 -46.523438 18.164062 -46.9375 19.03125 -47.25 C 19.457031 -47.363281 19.875 -47.476562 20.28125 -47.59375 C 20.695312 -47.71875 21.140625 -47.816406 21.609375 -47.890625 L 11.234375 -47.890625 C 12.484375 -48.128906 13.832031 -48.25 15.28125 -48.25 L 36.59375 -48.25 C 36.707031 -48.25 36.863281 -48.226562 37.0625 -48.1875 C 37.257812 -48.144531 37.4375 -48.046875 37.59375 -47.890625 L 45.3125 -47.890625 C 45.507812 -47.734375 45.664062 -47.523438 45.78125 -47.265625 C 45.894531 -47.015625 45.953125 -46.65625 45.953125 -46.1875 L 45.953125 -44.265625 L 48.1875 -44.265625 L 48.1875 -43.03125 L 40.75 -43.03125 L 40.75 -41.6875 C 40.75 -40.75 40.539062 -40.160156 40.125 -39.921875 C 39.71875 -39.691406 39.378906 -39.578125 39.109375 -39.578125 L 18.09375 -39.578125 C 17.507812 -39.578125 16.960938 -39.546875 16.453125 -39.484375 C 15.941406 -39.429688 15.492188 -39.328125 15.109375 -39.171875 Z M 29.6875 -12.9375 L 29.6875 -12.296875 L 42.453125 -12.296875 L 42.453125 -12.9375 Z M 18.390625 -31.203125 L 18.390625 -30.5625 L 31.203125 -30.5625 L 31.203125 -31.203125 Z M 24.765625 -23.359375 L 24.765625 -22.1875 L 43.796875 -22.1875 L 43.796875 -23.359375 Z M 15.625 -17.328125 L 15.625 -16.6875 L 22.71875 -16.6875 L 22.71875 -17.328125 Z M 15.625 -17.328125 "/></g></g></g><g fill="#000000" fill-opacity="1"><g transform="translate(110.131587, 102.409538)"><g><path d="M 47.125 -48.25 C 47.40625 -48.25 47.757812 -48.140625 48.1875 -47.921875 C 48.613281 -47.703125 48.828125 -47.144531 48.828125 -46.25 L 48.828125 -44.375 L 44.3125 -44.375 L 44.3125 -41.6875 C 44.3125 -40.707031 44.097656 -40.109375 43.671875 -39.890625 C 43.242188 -39.679688 42.894531 -39.578125 42.625 -39.578125 L 27.578125 -39.578125 L 27.578125 -37.828125 L 39.40625 -37.828125 L 39.40625 -36.421875 L 28.75 -36.421875 L 28.75 -28.15625 L 33.609375 -28.15625 L 33.609375 -23.890625 L 29.6875 -23.890625 L 29.6875 -17.453125 L 34.25 -17.453125 L 34.25 -16.046875 L 28.75 -16.046875 L 28.75 -11.828125 L 34.25 -11.828125 L 34.25 -7.609375 L 30.734375 -7.609375 L 32.5 -7.609375 L 32.5 -3.453125 L 34.015625 -3.453125 L 34.015625 -1.984375 C 34.015625 -1.085938 33.800781 -0.53125 33.375 -0.3125 C 32.945312 -0.101562 32.613281 0 32.375 0 L 26.9375 0 C 26.695312 0 26.363281 -0.101562 25.9375 -0.3125 C 25.507812 -0.53125 25.296875 -1.085938 25.296875 -1.984375 L 25.296875 -3.453125 L 20.203125 -3.453125 L 20.203125 -7.609375 L 23.421875 -7.609375 L 23.421875 -11.828125 L 20.015625 -11.828125 L 20.015625 -16.046875 L 23.421875 -16.046875 L 23.421875 -17.453125 L 20.953125 -17.453125 L 20.953125 -23.890625 L 23.421875 -23.890625 L 23.421875 -28.15625 L 20.015625 -28.15625 L 20.015625 -36.421875 L 25.296875 -36.421875 L 25.296875 -37.828125 L 18.90625 -37.828125 L 18.90625 -39.578125 L 3.859375 -39.578125 C 3.585938 -39.578125 3.238281 -39.679688 2.8125 -39.890625 C 2.382812 -40.109375 2.171875 -40.707031 2.171875 -41.6875 L 2.171875 -44.375 L 6.671875 -44.375 L 6.671875 -46.25 C 6.671875 -47.144531 6.882812 -47.703125 7.3125 -47.921875 C 7.75 -48.140625 8.101562 -48.25 8.375 -48.25 Z M 41.09375 -31.96875 L 41.09375 -33.484375 L 32.609375 -33.484375 L 32.609375 -31.96875 Z M 17.5625 -35.65625 L 17.5625 -36.421875 L 6.671875 -36.421875 L 6.671875 -35.65625 Z M 17.5625 -35.65625 "/></g></g></g><g fill="#000000" fill-opacity="1"><g transform="translate(240.967517, 102.409538)"><g><path d="M 20.84375 -36.765625 L 20.84375 -37.359375 L 15.390625 -37.359375 L 15.390625 -36.765625 Z M 4.6875 -5.625 L 4.6875 -6.203125 L 0.765625 -6.203125 L 0.765625 -5.625 Z M 14.234375 -34.421875 L 11.9375 -34.421875 L 11.9375 -30.796875 L 16.21875 -30.796875 L 16.21875 -24.828125 L 18.5 -24.828125 L 18.5 -23.59375 L 13.171875 -23.59375 L 13.171875 -14.28125 L 15.21875 -14.28125 L 15.21875 -10.65625 L 13.171875 -10.65625 L 13.171875 -8.140625 L 15.75 -8.140625 L 15.75 -4.515625 L 13.53125 -4.515625 L 13.53125 -1.984375 C 13.53125 -1.085938 13.3125 -0.519531 12.875 -0.28125 C 12.445312 -0.0507812 12.117188 0.0625 11.890625 0.0625 L 6.5 0.0625 C 6.226562 0.0625 5.875 -0.0507812 5.4375 -0.28125 C 5.007812 -0.519531 4.796875 -1.085938 4.796875 -1.984375 L 4.796875 -4.515625 L 7.078125 -4.515625 L 7.078125 -8.140625 L 4.515625 -8.140625 L 4.515625 -10.65625 L 6.5625 -10.65625 L 6.5625 -14.28125 L 4.515625 -14.28125 L 4.515625 -23.59375 L 2.578125 -23.59375 L 2.578125 -24.828125 L 7.546875 -24.828125 L 7.546875 -30.796875 L 3.28125 -30.796875 L 3.28125 -34.421875 L 5.5625 -34.421875 L 5.5625 -39.984375 L 8.203125 -39.984375 L 8.203125 -41.21875 L 3.859375 -41.21875 L 3.859375 -44.84375 L 6.90625 -44.84375 L 6.90625 -46.1875 C 6.90625 -47.09375 7.160156 -47.660156 7.671875 -47.890625 C 8.179688 -48.128906 8.570312 -48.25 8.84375 -48.25 L 15.046875 -48.25 C 15.359375 -48.25 15.75 -48.128906 16.21875 -47.890625 C 16.6875 -47.660156 16.921875 -47.09375 16.921875 -46.1875 L 16.921875 -44.84375 L 12.53125 -44.84375 L 12.53125 -41.21875 L 20.078125 -41.21875 L 20.078125 -39.984375 L 14.234375 -39.984375 Z M 14.234375 -34.421875 "/></g></g></g><g fill="#000000" fill-opacity="1"><g transform="translate(261.928229, 102.409538)"><g><path d="M 49.703125 -26.8125 L 46.546875 -26.8125 L 46.546875 -25.40625 L 48.703125 -25.40625 L 48.703125 -18.5 L 49.703125 -18.5 L 49.703125 -18.328125 C 49.703125 -16.878906 49.644531 -15.53125 49.53125 -14.28125 L 47.78125 -14.28125 C 47.738281 -13.46875 47.65625 -12.707031 47.53125 -12 C 47.414062 -11.300781 47.28125 -10.617188 47.125 -9.953125 C 47.09375 -9.566406 47.015625 -9.195312 46.890625 -8.84375 C 46.773438 -8.488281 46.660156 -8.132812 46.546875 -7.78125 L 44.265625 -7.78125 C 44.179688 -7.550781 44.085938 -7.316406 43.984375 -7.078125 C 43.890625 -6.847656 43.785156 -6.613281 43.671875 -6.375 L 47.546875 -6.375 C 47.109375 -5.519531 46.65625 -4.78125 46.1875 -4.15625 C 45.5625 -3.414062 44.84375 -2.753906 44.03125 -2.171875 L 40.859375 -2.171875 C 40.472656 -1.929688 40.082031 -1.703125 39.6875 -1.484375 C 39.300781 -1.273438 38.894531 -1.09375 38.46875 -0.9375 C 36.59375 -0.269531 34.382812 0.0625 31.84375 0.0625 L 17.5625 0.0625 C 14.988281 0.0625 12.800781 -0.269531 11 -0.9375 C 10.570312 -1.09375 10.15625 -1.273438 9.75 -1.484375 C 9.34375 -1.703125 8.960938 -1.929688 8.609375 -2.171875 L 11.765625 -2.171875 C 10.910156 -2.753906 10.191406 -3.4375 9.609375 -4.21875 C 9.367188 -4.53125 9.140625 -4.867188 8.921875 -5.234375 C 8.710938 -5.609375 8.507812 -5.988281 8.3125 -6.375 L 2.921875 -6.375 C 2.804688 -6.613281 2.695312 -6.847656 2.59375 -7.078125 C 2.5 -7.316406 2.414062 -7.550781 2.34375 -7.78125 L 6.140625 -7.78125 C 6.023438 -8.132812 5.914062 -8.488281 5.8125 -8.84375 C 5.71875 -9.195312 5.632812 -9.566406 5.5625 -9.953125 C 5.40625 -10.578125 5.273438 -11.25 5.171875 -11.96875 C 5.078125 -12.695312 4.992188 -13.46875 4.921875 -14.28125 L 3.109375 -14.28125 C 2.984375 -15.53125 2.921875 -16.878906 2.921875 -18.328125 L 2.921875 -18.5 L 5.03125 -18.5 L 5.03125 -25.40625 L 2.28125 -25.40625 L 2.28125 -26.8125 L 6.5 -26.8125 L 6.5 -29.921875 C 6.5 -32.878906 6.734375 -35.4375 7.203125 -37.59375 L 2.921875 -37.59375 C 2.960938 -37.707031 2.984375 -37.820312 2.984375 -37.9375 C 2.984375 -38.050781 3.003906 -38.148438 3.046875 -38.234375 C 3.316406 -39.554688 3.726562 -40.742188 4.28125 -41.796875 L 7.03125 -41.796875 C 7.375 -42.617188 7.800781 -43.34375 8.3125 -43.96875 C 8.394531 -44.125 8.503906 -44.257812 8.640625 -44.375 C 8.773438 -44.488281 8.898438 -44.609375 9.015625 -44.734375 L 12.234375 -44.734375 C 13.285156 -45.828125 14.554688 -46.664062 16.046875 -47.25 C 17.921875 -47.914062 20.125 -48.25 22.65625 -48.25 L 36.890625 -48.25 C 39.421875 -48.25 41.625 -47.914062 43.5 -47.25 C 45.0625 -46.664062 46.347656 -45.828125 47.359375 -44.734375 L 44.140625 -44.734375 C 44.253906 -44.609375 44.367188 -44.488281 44.484375 -44.375 C 44.609375 -44.257812 44.726562 -44.125 44.84375 -43.96875 C 45.351562 -43.34375 45.785156 -42.617188 46.140625 -41.796875 L 43.4375 -41.796875 C 43.988281 -40.742188 44.398438 -39.554688 44.671875 -38.234375 C 44.710938 -38.148438 44.734375 -38.050781 44.734375 -37.9375 C 44.734375 -37.820312 44.75 -37.707031 44.78125 -37.59375 L 49.0625 -37.59375 C 49.257812 -36.5 49.414062 -35.316406 49.53125 -34.046875 C 49.644531 -32.773438 49.703125 -31.398438 49.703125 -29.921875 Z M 37.828125 -25.40625 L 36.359375 -25.40625 L 36.359375 -26.8125 L 40.984375 -26.8125 L 40.984375 -30.90625 C 40.984375 -31.769531 40.960938 -32.5625 40.921875 -33.28125 C 40.878906 -34 40.800781 -34.65625 40.6875 -35.25 C 40.488281 -36.1875 40.21875 -36.96875 39.875 -37.59375 L 35.59375 -37.59375 C 35.550781 -37.664062 35.519531 -37.722656 35.5 -37.765625 C 35.488281 -37.804688 35.460938 -37.84375 35.421875 -37.875 C 35.023438 -38.425781 34.457031 -38.859375 33.71875 -39.171875 C 33.332031 -39.285156 32.882812 -39.378906 32.375 -39.453125 C 31.863281 -39.535156 31.296875 -39.578125 30.671875 -39.578125 L 16.984375 -39.578125 C 16.359375 -39.578125 15.800781 -39.535156 15.3125 -39.453125 C 14.820312 -39.378906 14.382812 -39.285156 14 -39.171875 C 13.21875 -38.859375 12.628906 -38.425781 12.234375 -37.875 C 12.191406 -37.84375 12.160156 -37.804688 12.140625 -37.765625 C 12.128906 -37.722656 12.101562 -37.664062 12.0625 -37.59375 L 16.328125 -37.59375 C 15.941406 -36.96875 15.671875 -36.1875 15.515625 -35.25 C 15.398438 -34.65625 15.320312 -34 15.28125 -33.28125 C 15.238281 -32.5625 15.21875 -31.769531 15.21875 -30.90625 L 15.21875 -26.8125 L 26.875 -26.8125 L 26.875 -25.40625 L 13.703125 -25.40625 L 13.703125 -18.5 L 11.59375 -18.5 L 11.59375 -17.265625 C 11.59375 -16.171875 11.648438 -15.175781 11.765625 -14.28125 L 13.578125 -14.28125 C 13.617188 -14.050781 13.648438 -13.816406 13.671875 -13.578125 C 13.691406 -13.347656 13.722656 -13.132812 13.765625 -12.9375 C 13.953125 -11.800781 14.28125 -10.941406 14.75 -10.359375 C 15.144531 -9.734375 15.710938 -9.304688 16.453125 -9.078125 C 17.234375 -8.804688 18.25 -8.671875 19.5 -8.671875 L 33.203125 -8.671875 C 34.484375 -8.671875 35.476562 -8.804688 36.1875 -9.078125 C 36.96875 -9.304688 37.550781 -9.734375 37.9375 -10.359375 C 38.175781 -10.671875 38.375 -11.050781 38.53125 -11.5 C 38.6875 -11.945312 38.820312 -12.425781 38.9375 -12.9375 C 38.96875 -13.132812 38.992188 -13.347656 39.015625 -13.578125 C 39.035156 -13.816406 39.066406 -14.050781 39.109375 -14.28125 L 40.859375 -14.28125 C 40.898438 -14.707031 40.929688 -15.175781 40.953125 -15.6875 C 40.972656 -16.195312 40.984375 -16.722656 40.984375 -17.265625 L 40.984375 -18.5 L 37.828125 -18.5 Z M 34.484375 -14.75 L 34.484375 -15.515625 L 25.9375 -15.515625 L 25.9375 -14.75 Z M 23.296875 -11.890625 L 23.296875 -12.296875 L 17.734375 -12.296875 L 17.734375 -11.890625 Z M 34.484375 -33.90625 L 34.484375 -35.015625 L 23.359375 -35.015625 L 23.359375 -33.90625 Z M 24.46875 -19.546875 L 24.46875 -20.140625 L 16.28125 -20.140625 L 16.28125 -19.546875 Z M 24.46875 -19.546875 "/></g></g></g><g fill="#000000" fill-opacity="1"><g transform="translate(317.374593, 102.409538)"><g><path d="M 51.109375 -38.40625 L 44.671875 -38.40625 L 44.671875 -34.1875 L 48.703125 -34.1875 L 48.703125 -23.359375 L 51.046875 -23.359375 L 51.046875 -21.953125 L 46.140625 -21.953125 L 46.140625 -15.046875 L 44.375 -15.046875 L 44.375 -10.828125 L 49.875 -10.828125 L 49.875 -7.5 C 49.875 -6.90625 49.851562 -6.34375 49.8125 -5.8125 C 49.78125 -5.289062 49.722656 -4.816406 49.640625 -4.390625 L 44.90625 -4.390625 C 44.863281 -4.117188 44.800781 -3.863281 44.71875 -3.625 C 44.644531 -3.394531 44.570312 -3.179688 44.5 -2.984375 L 45.140625 -2.984375 C 45.054688 -2.710938 44.96875 -2.46875 44.875 -2.25 C 44.78125 -2.039062 44.65625 -1.835938 44.5 -1.640625 C 43.675781 -0.503906 42.40625 0.0625 40.6875 0.0625 L 36.421875 0.0625 C 35.640625 0.0625 34.972656 0.00390625 34.421875 -0.109375 C 34.148438 -0.191406 33.878906 -0.28125 33.609375 -0.375 C 33.335938 -0.476562 33.082031 -0.609375 32.84375 -0.765625 C 32.375 -1.035156 31.945312 -1.460938 31.5625 -2.046875 C 31.476562 -2.160156 31.378906 -2.304688 31.265625 -2.484375 C 31.148438 -2.660156 31.03125 -2.828125 30.90625 -2.984375 L 27.640625 -2.984375 C 27.515625 -3.179688 27.382812 -3.375 27.25 -3.5625 C 27.113281 -3.757812 26.96875 -3.976562 26.8125 -4.21875 L 26.703125 -4.390625 L 34.25 -4.390625 L 30.625 -10.828125 L 25.109375 -10.828125 L 22.78125 -15.046875 L 24.53125 -15.046875 L 20.671875 -21.953125 L 24.46875 -21.953125 L 23.65625 -23.359375 L 22.421875 -23.359375 L 16.328125 -34.1875 L 14.234375 -34.1875 L 14.234375 -23.359375 L 18.5 -23.359375 L 18.5 -21.953125 L 11.65625 -21.953125 L 11.65625 -15.046875 L 14.921875 -15.046875 L 14.921875 -4.390625 L 10.828125 -4.390625 L 10.828125 -2.984375 L 15.578125 -2.984375 L 15.578125 -1.984375 C 15.578125 -1.085938 15.359375 -0.519531 14.921875 -0.28125 C 14.492188 -0.0507812 14.164062 0.0625 13.9375 0.0625 L 8.71875 0.0625 C 8.445312 0.0625 8.097656 -0.0507812 7.671875 -0.28125 C 7.242188 -0.519531 7.03125 -1.085938 7.03125 -1.984375 L 7.03125 -2.984375 L 2.28125 -2.984375 L 2.28125 -4.390625 L 6.375 -4.390625 L 6.375 -10.828125 L 1.171875 -10.828125 L 1.171875 -15.046875 L 3.109375 -15.046875 L 3.109375 -21.953125 L 1.984375 -21.953125 L 1.984375 -23.359375 L 5.671875 -23.359375 L 5.671875 -34.1875 L 1.640625 -34.1875 L 1.640625 -38.40625 L 5.265625 -38.40625 L 5.265625 -40.6875 C 5.265625 -40.800781 5.265625 -40.90625 5.265625 -41 C 5.265625 -41.101562 5.265625 -41.210938 5.265625 -41.328125 L 1.9375 -41.328125 C 1.96875 -42.234375 2.03125 -43.035156 2.125 -43.734375 C 2.226562 -44.429688 2.378906 -45.035156 2.578125 -45.546875 L 6.90625 -45.546875 C 7.101562 -46.015625 7.300781 -46.367188 7.5 -46.609375 C 8.351562 -47.703125 9.617188 -48.25 11.296875 -48.25 L 15.625 -48.25 C 16.0625 -48.25 16.453125 -48.238281 16.796875 -48.21875 C 17.148438 -48.195312 17.460938 -48.164062 17.734375 -48.125 C 18.328125 -48.007812 18.859375 -47.773438 19.328125 -47.421875 C 19.710938 -47.148438 20.140625 -46.703125 20.609375 -46.078125 C 20.679688 -45.992188 20.75 -45.90625 20.8125 -45.8125 C 20.875 -45.71875 20.921875 -45.628906 20.953125 -45.546875 L 16.625 -45.546875 C 16.78125 -45.316406 16.925781 -45.070312 17.0625 -44.8125 C 17.195312 -44.5625 17.34375 -44.28125 17.5 -43.96875 L 19.03125 -41.328125 L 22.359375 -41.328125 L 24 -38.40625 L 20.375 -38.40625 L 22.78125 -34.1875 L 26.8125 -34.1875 L 32.90625 -23.359375 L 34.125 -23.359375 L 34.890625 -21.953125 L 31.09375 -21.953125 L 34.953125 -15.046875 L 33.203125 -15.046875 L 35.421875 -11.0625 C 35.492188 -10.945312 35.550781 -10.890625 35.59375 -10.890625 L 35.890625 -10.890625 C 35.890625 -10.929688 35.890625 -10.953125 35.890625 -10.953125 C 35.890625 -10.953125 35.890625 -10.96875 35.890625 -11 L 35.890625 -15.046875 L 37.640625 -15.046875 L 37.640625 -21.953125 L 37.171875 -21.953125 L 37.171875 -23.359375 L 40.28125 -23.359375 L 40.28125 -34.1875 L 31.4375 -34.1875 L 31.4375 -38.40625 L 39.8125 -38.40625 L 39.8125 -41.328125 L 36.46875 -41.328125 L 36.46875 -45.546875 L 40.8125 -45.546875 L 40.8125 -46.1875 C 40.8125 -47.125 41.023438 -47.703125 41.453125 -47.921875 C 41.878906 -48.140625 42.210938 -48.25 42.453125 -48.25 L 47.65625 -48.25 C 47.925781 -48.25 48.265625 -48.140625 48.671875 -47.921875 C 49.085938 -47.703125 49.296875 -47.125 49.296875 -46.1875 L 49.296875 -45.546875 L 44.96875 -45.546875 L 44.96875 -41.328125 L 51.109375 -41.328125 Z M 30.4375 -43.796875 L 30.4375 -44.546875 L 21.890625 -44.546875 L 21.890625 -43.796875 Z M 26.171875 -6.796875 L 26.171875 -7.4375 L 17.96875 -7.4375 L 17.96875 -6.796875 Z M 35.1875 -39.6875 L 35.1875 -40.34375 L 26.984375 -40.34375 L 26.984375 -39.6875 Z M 35.1875 -39.6875 "/></g></g></g></g></g></svg>