<?xml version="1.0" standalone="no"?>
<!DOCTYPE svg PUBLIC "-//W3C//DTD SVG 20010904//EN"
 "http://www.w3.org/TR/2001/REC-SVG-20010904/DTD/svg10.dtd">
<svg version="1.0" xmlns="http://www.w3.org/2000/svg"
 width="500.000000pt" height="500.000000pt" viewBox="0 0 500.000000 500.000000"
 preserveAspectRatio="xMidYMid meet">

<g transform="translate(0.000000,500.000000) scale(0.100000,-0.100000)"
fill="#000000" stroke="none">
<path d="M220 4971 c0 -10 967 -1544 1466 -2325 49 -77 88 -143 87 -147 -1 -4
-103 -155 -226 -335 -123 -181 -289 -426 -369 -544 -81 -118 -223 -325 -317
-460 l-170 -245 187 -6 c103 -4 408 -7 679 -8 l491 -1 90 163 c140 254 203
371 287 530 42 81 78 147 80 147 2 0 75 -105 161 -232 155 -229 309 -451 345
-496 9 -12 20 -18 23 -13 7 11 -220 467 -405 814 -99 186 -124 226 -134 215
-15 -17 -307 -484 -455 -731 l-113 -187 -434 0 c-410 0 -433 1 -424 18 15 29
278 443 583 920 l291 453 -84 122 c-323 474 -1539 2238 -1608 2334 -16 23 -31
30 -31 14z"/>
<path d="M2932 4068 c-26 -44 -236 -430 -347 -640 -49 -93 -91 -168 -94 -168
-3 1 -83 116 -178 258 -198 297 -335 492 -345 492 -5 0 -8 -5 -8 -10 0 -24
502 -1004 530 -1033 7 -8 216 321 474 746 l108 177 435 0 c344 0 433 -3 427
-12 -18 -31 -154 -244 -498 -783 -203 -319 -370 -587 -370 -595 0 -20 1646
-2423 1695 -2475 46 -47 9 21 -129 243 -164 261 -957 1517 -1235 1954 l-176
278 311 457 c172 252 417 610 545 796 128 186 233 340 233 343 0 2 -306 4
-679 4 l-679 0 -20 -32z"/>
</g>
</svg>
